<svg xmlns="http://www.w3.org/2000/svg" viewBox="0 0 750 500"><g id="freepik--background-complete--inject-3"><ellipse cx="265.49" cy="459.85" rx="49.63" ry="6.24" style="fill:#f5f5f5"></ellipse><path d="M146.61,470.59c0,3.44-22.22,6.24-49.63,6.24s-49.63-2.8-49.63-6.24,22.22-6.24,49.63-6.24S146.61,467.14,146.61,470.59Z" style="fill:#f5f5f5"></path><ellipse cx="475.09" cy="443.49" rx="33.18" ry="6.24" style="fill:#f5f5f5"></ellipse><path d="M703.44,477.55c0,3.45-26.66,6.24-59.55,6.24s-59.56-2.79-59.56-6.24,26.67-6.24,59.56-6.24S703.44,474.1,703.44,477.55Z" style="fill:#f5f5f5"></path><path d="M318.66,55.4a30,30,0,0,1,7.24-3.15l1.49-7.16,12.09-.21,1.75,7.1a30.06,30.06,0,0,1,7.34,2.89l6.11-4,8.71,8.41-3.79,6.25a29.69,29.69,0,0,1,3.14,7.24l7.16,1.49.21,12.1L363,88.09a29.66,29.66,0,0,1-2.89,7.34l4,6.11-8.4,8.71-6.26-3.79a29.46,29.46,0,0,1-7.23,3.14l-1.49,7.16-12.1.22-1.74-7.11a29.36,29.36,0,0,1-7.34-2.89l-6.12,4-8.7-8.4,3.79-6.25a29.73,29.73,0,0,1-3.15-7.24l-7.16-1.49L298,75.51l7.1-1.74A29.75,29.75,0,0,1,308,66.43l-4-6.12,8.41-8.7,6.25,3.79Zm6.45,16.12a13,13,0,1,0,18.36-.33A13,13,0,0,0,325.11,71.52Z" style="fill:#f5f5f5"></path><path d="M584,77.14A29.73,29.73,0,0,1,591.2,74l1.49-7.16,12.1-.21,1.74,7.1a29.75,29.75,0,0,1,7.34,2.89l6.12-4,8.7,8.41-3.79,6.25a30,30,0,0,1,3.15,7.23L635.21,96l.21,12.1-7.11,1.75a29.63,29.63,0,0,1-2.88,7.34l4,6.11L621,132l-6.25-3.79a29.69,29.69,0,0,1-7.24,3.14l-1.49,7.16-12.1.21-1.74-7.1a30.06,30.06,0,0,1-7.34-2.89l-6.11,4-8.71-8.41,3.79-6.25a29.46,29.46,0,0,1-3.14-7.23l-7.16-1.49-.22-12.1,7.11-1.74a29,29,0,0,1,2.89-7.34l-4-6.12,8.4-8.7L584,77.14Zm6.45,16.11a13,13,0,1,0,18.36-.32A13,13,0,0,0,590.41,93.25Z" style="fill:#f5f5f5"></path><path d="M123.26,189.12a29.12,29.12,0,0,1,7.23-3.15l1.49-7.16,12.1-.21,1.74,7.1a29.75,29.75,0,0,1,7.34,2.89l6.12-4L168,193l-3.79,6.25a29.66,29.66,0,0,1,3.15,7.23L174.5,208l.21,12.1-7.1,1.74a30,30,0,0,1-2.89,7.35l4,6.11L160.32,244l-6.25-3.79a29.53,29.53,0,0,1-7.24,3.14l-1.49,7.16-12.09.21-1.75-7.1a30.06,30.06,0,0,1-7.34-2.89l-6.11,4-8.71-8.41,3.79-6.25a29.63,29.63,0,0,1-3.14-7.23l-7.16-1.49-.21-12.1,7.1-1.74a29.36,29.36,0,0,1,2.89-7.34l-4-6.12,8.4-8.71,6.26,3.8Zm6.45,16.11a13,13,0,1,0,18.35-.32A13,13,0,0,0,129.71,205.23Z" style="fill:#f5f5f5"></path><path d="M270.72,33.5a13.1,13.1,0,0,1,3.22-1.4l.67-3.19,5.39-.1.78,3.17a13.26,13.26,0,0,1,3.27,1.29l2.72-1.79,3.88,3.75L289,38a13.56,13.56,0,0,1,1.4,3.23l3.19.66.09,5.4-3.16.77a13.26,13.26,0,0,1-1.29,3.27L291,54.07,287.24,58l-2.79-1.69a12.74,12.74,0,0,1-3.22,1.4l-.67,3.2-5.39.09-.78-3.17a12.85,12.85,0,0,1-3.27-1.28l-2.73,1.78-3.88-3.74,1.69-2.79a13.56,13.56,0,0,1-1.4-3.23l-3.19-.66-.1-5.39,3.17-.78A13.26,13.26,0,0,1,266,38.42l-1.79-2.73,3.75-3.88,2.79,1.69Zm2.87,7.19a5.79,5.79,0,1,0,8.18-.15A5.78,5.78,0,0,0,273.59,40.69Z" style="fill:#f5f5f5"></path><path d="M34.38,328a13.49,13.49,0,0,1,3.22-1.4l.67-3.19,5.39-.1.78,3.17a13.26,13.26,0,0,1,3.27,1.29L50.44,326l3.88,3.75-1.69,2.78a13.56,13.56,0,0,1,1.4,3.23l3.19.66.1,5.4-3.17.77a13.32,13.32,0,0,1-1.29,3.28l1.79,2.72-3.75,3.88-2.79-1.69a13.14,13.14,0,0,1-3.22,1.41l-.67,3.19-5.39.09-.77-3.16A13.17,13.17,0,0,1,34.78,351l-2.72,1.78L28.18,349l1.69-2.79A13.14,13.14,0,0,1,28.46,343l-3.19-.67L25.18,337l3.16-.78a13.26,13.26,0,0,1,1.29-3.27l-1.79-2.73,3.75-3.88L34.38,328Zm2.87,7.19a5.79,5.79,0,1,0,8.19-.15A5.78,5.78,0,0,0,37.25,335.17Z" style="fill:#f5f5f5"></path><path d="M382.9,45.75a17.57,17.57,0,0,1,4.23-1.84l.88-4.19,7.07-.12,1,4.15a17.56,17.56,0,0,1,4.3,1.69L404,43.1,409.07,48l-2.22,3.65a17.57,17.57,0,0,1,1.84,4.23l4.19.88.12,7.07-4.15,1a17.56,17.56,0,0,1-1.69,4.3l2.34,3.57-4.91,5.1-3.66-2.22a17.4,17.4,0,0,1-4.23,1.84l-.88,4.19-7.07.12-1-4.15a17.56,17.56,0,0,1-4.3-1.69l-3.57,2.34-5.1-4.92L377,69.7a17.57,17.57,0,0,1-1.84-4.23L371,64.59l-.12-7.07,4.15-1a17.56,17.56,0,0,1,1.69-4.3l-2.34-3.57,4.92-5.1,3.65,2.22Zm3.78,9.43A7.59,7.59,0,1,0,397.41,55,7.6,7.6,0,0,0,386.68,55.18Z" style="fill:#f5f5f5"></path><path d="M638.94,44.23a17.4,17.4,0,0,1,4.23-1.84L644,38.2l7.08-.12,1,4.15a17.72,17.72,0,0,1,4.3,1.69L660,41.58l5.1,4.92-2.22,3.65a17.47,17.47,0,0,1,1.84,4.24l4.19.87.12,7.08-4.15,1a17.56,17.56,0,0,1-1.69,4.3l2.34,3.58-4.92,5.09L657,74.1a17.47,17.47,0,0,1-4.24,1.84l-.87,4.19-7.08.12-1-4.15a17.56,17.56,0,0,1-4.3-1.69l-3.58,2.34-5.09-4.91L633,68.18A17.4,17.4,0,0,1,631.18,64L627,63.07,626.87,56,631,55a17.56,17.56,0,0,1,1.69-4.3l-2.34-3.57,4.91-5.1,3.66,2.22Zm3.77,9.43a7.6,7.6,0,1,0,10.74-.19A7.61,7.61,0,0,0,642.71,53.66Z" style="fill:#f5f5f5"></path><path d="M130.65,98.35H98.53a4,4,0,0,1-4-4V49.87a4,4,0,0,1,4-4H118.9L134.67,62.1V94.33A4,4,0,0,1,130.65,98.35Z" style="fill:#ebebeb"></path><path d="M94.51,82.42h40.17a0,0,0,0,1,0,0V92.63A5.72,5.72,0,0,1,129,98.35H100.23a5.72,5.72,0,0,1-5.72-5.72V82.42A0,0,0,0,1,94.51,82.42Z" style="fill:#e0e0e0"></path><path d="M108.74,92.7l1-1.22a1.8,1.8,0,0,0,1.46.87c.73,0,1.12-.44,1.12-1.3V87.31h-2.77V85.85h4.57v5.09c0,2-1,2.9-2.83,2.9A3.18,3.18,0,0,1,108.74,92.7Z" style="fill:#fafafa"></path><path d="M115.22,93.15l.58-1.26a4.12,4.12,0,0,0,2.1.58c.81,0,1.12-.21,1.12-.55,0-1-3.65,0-3.65-2.39,0-1.15,1-2,2.79-2a5.1,5.1,0,0,1,2.33.52l-.59,1.25a3.42,3.42,0,0,0-1.74-.45c-.78,0-1.12.25-1.12.56,0,1,3.65,0,3.65,2.42,0,1.12-1,1.92-2.85,1.92A5.18,5.18,0,0,1,115.22,93.15Z" style="fill:#fafafa"></path><path d="M103,74.06l1.26-1.48a3.79,3.79,0,0,0,3.17,1.8c1.71,0,2.6-1,2.6-3.08V62.77h-5.49V60.88h7.64V71.19c0,3.39-1.65,5.06-4.75,5.06A5.31,5.31,0,0,1,103,74.06Z" style="fill:#fafafa"></path><path d="M114.88,74.86l.86-1.65a7.39,7.39,0,0,0,4,1.2c1.94,0,2.74-.59,2.74-1.57,0-2.58-7.27-.35-7.27-4.93,0-2.06,1.84-3.45,4.79-3.45a8.36,8.36,0,0,1,4.19,1l-.89,1.65a6,6,0,0,0-3.32-.91c-1.82,0-2.71.67-2.71,1.59,0,2.71,7.29.5,7.29,5,0,2.08-1.91,3.41-5,3.41A8.28,8.28,0,0,1,114.88,74.86Z" style="fill:#fafafa"></path><g style="opacity:0.30000000000000004"><path d="M118.9,45.85V58.36a3.74,3.74,0,0,0,3.74,3.74h12Z" style="fill:#fff"></path></g><path d="M119.07,59.46a4.15,4.15,0,0,0,3.29,4,2.88,2.88,0,0,0,.4.09c1.57.28,11.91,2.12,11.91,1.88V62.1h-12S119.64,62,119.07,59.46Z" style="fill:#e0e0e0"></path><path d="M647.46,320.82H615.34a4,4,0,0,1-4-4V272.34a4,4,0,0,1,4-4h20.37l15.77,16.25V316.8A4,4,0,0,1,647.46,320.82Z" style="fill:#ebebeb"></path><path d="M611.32,304.89h40.17a0,0,0,0,1,0,0V315.1a5.72,5.72,0,0,1-5.72,5.72H617a5.72,5.72,0,0,1-5.72-5.72V304.89A0,0,0,0,1,611.32,304.89Z" style="fill:#e0e0e0"></path><path d="M625.55,315.17l1-1.21a1.81,1.81,0,0,0,1.46.86c.73,0,1.11-.44,1.11-1.3v-3.74h-2.76v-1.46h4.57v5.1c0,1.94-1,2.89-2.83,2.89A3.16,3.16,0,0,1,625.55,315.17Z" style="fill:#fafafa"></path><path d="M632,315.62l.58-1.26a4.12,4.12,0,0,0,2.1.58c.81,0,1.11-.21,1.11-.55,0-1-3.65,0-3.65-2.39,0-1.14,1-1.95,2.8-1.95a5,5,0,0,1,2.33.53l-.59,1.24a3.53,3.53,0,0,0-1.74-.45c-.79,0-1.12.25-1.12.57,0,1,3.65,0,3.65,2.41,0,1.12-1,1.92-2.85,1.92A5.18,5.18,0,0,1,632,315.62Z" style="fill:#fafafa"></path><path d="M619.83,296.53l1.26-1.48a3.78,3.78,0,0,0,3.17,1.81c1.71,0,2.6-1.05,2.6-3.09v-8.53h-5.49v-1.89H629v10.31c0,3.39-1.65,5.06-4.75,5.06A5.28,5.28,0,0,1,619.83,296.53Z" style="fill:#fafafa"></path><path d="M631.69,297.33l.86-1.65a7.36,7.36,0,0,0,4,1.2c1.93,0,2.74-.59,2.74-1.57,0-2.58-7.28-.34-7.28-4.92,0-2.07,1.85-3.46,4.8-3.46A8.28,8.28,0,0,1,641,288l-.89,1.65a6,6,0,0,0-3.32-.92c-1.82,0-2.71.68-2.71,1.59,0,2.71,7.29.5,7.29,5,0,2.09-1.91,3.41-5,3.41A8.28,8.28,0,0,1,631.69,297.33Z" style="fill:#fafafa"></path><g style="opacity:0.30000000000000004"><path d="M635.71,268.32v12.51a3.73,3.73,0,0,0,3.74,3.74h12Z" style="fill:#fff"></path></g><path d="M635.88,281.93a4.15,4.15,0,0,0,3.29,4,2.88,2.88,0,0,0,.4.09c1.57.28,11.91,2.12,11.91,1.89v-3.37h-12S636.44,284.47,635.88,281.93Z" style="fill:#e0e0e0"></path></g><g id="freepik--Floor--inject-3"><path d="M716.23,391.36c0,.15-154.13.26-344.21.26s-344.25-.11-344.25-.26,154.09-.26,344.25-.26S716.23,391.22,716.23,391.36Z" style="fill:#263238"></path></g><g id="freepik--Device--inject-3"><path d="M559.39,386.51H173.31A23.11,23.11,0,0,1,150.2,363.4v-265a16.86,16.86,0,0,1,16.85-16.85H566.57A15.93,15.93,0,0,1,582.5,97.5V363.4A23.11,23.11,0,0,1,559.39,386.51Z" style="fill:#e0e0e0"></path><path d="M559.39,386.51s.31,0,.94-.06l1.16-.07c.46,0,1-.14,1.6-.22l1-.15,1.06-.28,1.16-.3,1.22-.45a23.57,23.57,0,0,0,2.69-1.2c.47-.24.92-.55,1.41-.83l.73-.45L573,382a22.82,22.82,0,0,0,9.05-14.69c.06-.43.13-.87.19-1.31s.06-.89.09-1.34c.06-.91.07-1.84.06-2.78V356q0-6.06,0-12.9c0-36.45,0-89.19-.07-154.36q0-24.43,0-51.15V110.36c0-2.31,0-4.63,0-7V99.89c0-1.17,0-2.35,0-3.51a15.78,15.78,0,0,0-6.73-11.81A15.42,15.42,0,0,0,569,82c-.29,0-.58-.1-.88-.13l-.9,0c-.59,0-1.2,0-1.81,0H453.87l-280.33,0h-4.66c-.77,0-1.56,0-2.32,0l-1.14.06-1.14.17a6.19,6.19,0,0,0-1.12.23c-.37.09-.74.18-1.11.29a18.38,18.38,0,0,0-2.12.85,15.72,15.72,0,0,0-3.8,2.5,16.31,16.31,0,0,0-3,3.43,17.93,17.93,0,0,0-1.95,4.1,17.48,17.48,0,0,0-.73,4.48c-.05,1.52,0,3.07,0,4.6v36.59q0,36.32,0,71.52c0,46.9,0,92.13,0,135.22v16.05c0,1.34,0,2.65.14,4l.29,1.94c.13.65.32,1.28.47,1.91a23.2,23.2,0,0,0,3.4,7,22.85,22.85,0,0,0,12.45,8.71c.62.14,1.23.35,1.87.44l1.89.29c1.28.07,2.55.15,3.84.13h67.07l106.6,0,154.35.07,42,0,10.91,0,3.72,0-3.72,0-10.91,0-42,.05-154.35.08-106.6,0-59.39,0h-7.68c-1.28,0-2.58-.05-3.88-.13L169,386.3c-.65-.09-1.27-.31-1.9-.45a23.33,23.33,0,0,1-16.15-16c-.16-.65-.36-1.29-.48-1.94l-.31-2c-.09-1.34-.16-2.68-.14-4V345.87c0-43.09,0-88.32,0-135.22V102.54c0-1.54,0-3.06,0-4.61a16.79,16.79,0,0,1,2.76-8.83,16.69,16.69,0,0,1,3.07-3.53A16.49,16.49,0,0,1,159.73,83a17.13,17.13,0,0,1,2.18-.88c.38-.11.76-.2,1.14-.3a6.51,6.51,0,0,1,1.15-.23c.39-.06.78-.13,1.17-.17l1.18-.06c.79-.06,1.55,0,2.33,0h4.66l280.33,0H565.36c.61,0,1.21,0,1.83,0l.92,0c.3,0,.6.08.9.12a16.06,16.06,0,0,1,13.62,14.79c.09,1.19,0,2.36.06,3.53v10.47q0,13.88,0,27.21,0,26.69,0,51.15c0,65.17-.06,117.91-.08,154.36q0,6.84,0,12.9c0,2,0,4,0,5.86,0,.94,0,1.87-.06,2.78,0,.46,0,.91-.09,1.36s-.14.88-.2,1.31A22.86,22.86,0,0,1,573.08,382l-.71.53-.73.45c-.49.29-.95.6-1.42.83a24.48,24.48,0,0,1-2.7,1.2l-1.23.44-1.17.3-1.06.27-1,.15c-.61.08-1.14.19-1.6.21l-1.16.05Z" style="fill:#263238"></path><path d="M582.05,391.15H154.46a22.34,22.34,0,0,1-22.34-22.34v-3.48a.86.86,0,0,1,.86-.86H599.62a.85.85,0,0,1,.86.86v7.38A18.44,18.44,0,0,1,582.05,391.15Z" style="fill:#e0e0e0"></path><path d="M582.05,391.15l.63,0a13.27,13.27,0,0,0,1.86-.16,18.43,18.43,0,0,0,11.05-5.84,18.56,18.56,0,0,0,3.47-5.48,19,19,0,0,0,1.34-7.44V368c0-.73,0-1.46,0-2.21,0-.38,0-.75-.24-1s-.64-.21-1-.21L495,364.64l-343.57.07H133a.64.64,0,0,0-.28.05.61.61,0,0,0-.36.41,5.13,5.13,0,0,0,0,.71v1.56c0,1,0,2.07.09,3.09a21.14,21.14,0,0,0,1.31,6,20,20,0,0,0,2.89,5.36,22.2,22.2,0,0,0,9.45,7.4,23.31,23.31,0,0,0,5.85,1.5c2,.19,4,.15,6.06.15h36l91.22,0,154.46.05,104.13.08,28.31,0,7.37,0,2.51,0s-.85,0-2.51,0l-7.37,0-28.31,0-104.13.08-154.46.05H158c-2,0-4.06,0-6.12-.16a23.41,23.41,0,0,1-6-1.53,22.65,22.65,0,0,1-9.65-7.56,24.88,24.88,0,0,1-1.69-2.62,25.14,25.14,0,0,1-1.27-2.86,21.91,21.91,0,0,1-1.34-6.1c-.06-1-.11-2.09-.09-3.12v-1.56a5,5,0,0,1,0-.83,1.07,1.07,0,0,1,.63-.73,1.15,1.15,0,0,1,.47-.09h18.4L495,364.3l104.13.07h.59a1,1,0,0,1,.56.25.9.9,0,0,1,.29.54,3.8,3.8,0,0,1,0,.58v6.43a19.26,19.26,0,0,1-1.38,7.49,18.55,18.55,0,0,1-3.51,5.51,17.53,17.53,0,0,1-4.21,3.41,17.3,17.3,0,0,1-6.92,2.39,13.15,13.15,0,0,1-1.87.15Z" style="fill:#263238"></path><rect x="167.92" y="100.18" width="395.65" height="249.79" rx="4.81" style="fill:#fff"></rect><polygon points="323.73 363.95 329.54 373.81 411.33 373.81 416.72 363.95 323.73 363.95" style="fill:#263238"></polygon><circle cx="366.3" cy="91.73" r="3.24" style="fill:#263238"></circle><path d="M167.92,124.65H237.5a0,0,0,0,1,0,0V350a0,0,0,0,1,0,0H173.19a5.27,5.27,0,0,1-5.27-5.27V124.65A0,0,0,0,1,167.92,124.65Z" style="fill:#f5f5f5"></path><path d="M198.46,134.82a4.73,4.73,0,0,1,1.16-.5l.24-1.15,1.94,0,.27,1.14a4.59,4.59,0,0,1,1.18.46l1-.64,1.39,1.34-.6,1a4.51,4.51,0,0,1,.5,1.15l1.15.24,0,1.94-1.14.28a4.67,4.67,0,0,1-.46,1.17l.64,1-1.34,1.4-1-.61a4.73,4.73,0,0,1-1.16.5l-.24,1.15-1.94,0-.28-1.13a4.7,4.7,0,0,1-1.17-.47l-1,.65-1.4-1.35.61-1a4.73,4.73,0,0,1-.5-1.16l-1.15-.24,0-1.94,1.13-.27a4.62,4.62,0,0,1,.47-1.18l-.65-1,1.35-1.39,1,.6Zm1,2.59a2.08,2.08,0,1,0,2.94-.06A2.07,2.07,0,0,0,199.49,137.41Z" style="fill:#e0e0e0"></path><path d="M214.54,189.12H184.2a3.12,3.12,0,0,1-3.11-3.12h0a3.12,3.12,0,0,1,3.11-3.12h30.34a3.12,3.12,0,0,1,3.11,3.12h0A3.12,3.12,0,0,1,214.54,189.12Z" style="fill:#e0e0e0"></path><path d="M214.54,173.24H184.2a3.12,3.12,0,0,1-3.11-3.12h0A3.12,3.12,0,0,1,184.2,167h30.34a3.12,3.12,0,0,1,3.11,3.12h0A3.12,3.12,0,0,1,214.54,173.24Z" style="fill:#e0e0e0"></path><path d="M214.54,158.71H184.2a3.12,3.12,0,0,1-3.11-3.12h0a3.12,3.12,0,0,1,3.11-3.12h30.34a3.12,3.12,0,0,1,3.11,3.12h0A3.12,3.12,0,0,1,214.54,158.71Z" style="fill:#e0e0e0"></path><path d="M296.08,140.52H267.34a3.12,3.12,0,0,1-3.11-3.12h0a3.12,3.12,0,0,1,3.11-3.12h28.74a3.12,3.12,0,0,1,3.11,3.12h0A3.12,3.12,0,0,1,296.08,140.52Z" style="fill:#263238"></path><path d="M296.08,156.84H267.34a3.12,3.12,0,0,1-3.11-3.12h0a3.12,3.12,0,0,1,3.11-3.12h28.74a3.12,3.12,0,0,1,3.11,3.12h0A3.12,3.12,0,0,1,296.08,156.84Z" style="fill:#e0e0e0"></path><path d="M296.08,173.7H267.34a3.12,3.12,0,0,1-3.11-3.12h0a3.11,3.11,0,0,1,3.11-3.11h28.74a3.11,3.11,0,0,1,3.11,3.11h0A3.12,3.12,0,0,1,296.08,173.7Z" style="fill:#00A3A3"></path><path d="M283.82,206.3H267.34a3.11,3.11,0,0,1-3.11-3.11h0a3.11,3.11,0,0,1,3.11-3.12h16.48a3.12,3.12,0,0,1,3.12,3.12h0A3.12,3.12,0,0,1,283.82,206.3Z" style="fill:#263238"></path><path d="M283.82,223.2H267.34a3.11,3.11,0,0,1-3.11-3.11h0a3.11,3.11,0,0,1,3.11-3.12h16.48a3.12,3.12,0,0,1,3.12,3.12h0A3.12,3.12,0,0,1,283.82,223.2Z" style="fill:#263238"></path><path d="M332.78,223.2H302.57a3.11,3.11,0,0,1-3.11-3.11h0a3.11,3.11,0,0,1,3.11-3.12h30.21a3.11,3.11,0,0,1,3.12,3.12h0A3.11,3.11,0,0,1,332.78,223.2Z" style="fill:#e0e0e0"></path><path d="M315.7,238.23H285.49a3.12,3.12,0,0,1-3.12-3.12h0a3.12,3.12,0,0,1,3.12-3.11H315.7a3.11,3.11,0,0,1,3.11,3.11h0A3.11,3.11,0,0,1,315.7,238.23Z" style="fill:#00A3A3"></path><rect x="299.51" y="249.14" width="25.01" height="6.23" rx="3.11" style="fill:#00A3A3"></rect><path d="M321.4,289H302.63a3.12,3.12,0,0,1-3.12-3.12h0a3.12,3.12,0,0,1,3.12-3.12H321.4a3.12,3.12,0,0,1,3.12,3.12h0A3.12,3.12,0,0,1,321.4,289Z" style="fill:#00A3A3"></path><path d="M321.4,324.45H302.63a3.12,3.12,0,0,1-3.12-3.12h0a3.12,3.12,0,0,1,3.12-3.11H321.4a3.12,3.12,0,0,1,3.12,3.11h0A3.12,3.12,0,0,1,321.4,324.45Z" style="fill:#00A3A3"></path><path d="M367.55,324.45H334.64a3.12,3.12,0,0,1-3.12-3.12h0a3.12,3.12,0,0,1,3.12-3.11h32.91a3.11,3.11,0,0,1,3.11,3.11h0A3.11,3.11,0,0,1,367.55,324.45Z" style="fill:#455a64"></path><path d="M390.58,324.45h-4.74a3.12,3.12,0,0,1-3.12-3.12h0a3.12,3.12,0,0,1,3.12-3.11h4.74a3.12,3.12,0,0,1,3.12,3.11h0A3.12,3.12,0,0,1,390.58,324.45Z" style="fill:#e0e0e0"></path><path d="M365.57,289H337.76a3.12,3.12,0,0,1-3.11-3.12h0a3.12,3.12,0,0,1,3.11-3.12h27.81a3.12,3.12,0,0,1,3.12,3.12h0A3.12,3.12,0,0,1,365.57,289Z" style="fill:#e0e0e0"></path><path d="M426.56,304.54h-88.8a3.11,3.11,0,0,1-3.11-3.11h0a3.12,3.12,0,0,1,3.11-3.12h88.8a3.12,3.12,0,0,1,3.12,3.12h0A3.12,3.12,0,0,1,426.56,304.54Z" style="fill:#e0e0e0"></path><path d="M436.82,289h-56.7a3.12,3.12,0,0,1-3.11-3.12h0a3.12,3.12,0,0,1,3.11-3.12h56.7a3.12,3.12,0,0,1,3.11,3.12h0A3.12,3.12,0,0,1,436.82,289Z" style="fill:#455a64"></path><rect x="332.68" y="249.14" width="29.72" height="6.23" rx="3.11" style="fill:#455a64"></rect><rect x="370.66" y="249.14" width="12.07" height="6.23" rx="3.11" style="fill:#e0e0e0"></rect><rect x="391.92" y="249.14" width="35.6" height="6.23" rx="3.11" style="fill:#e0e0e0"></rect><path d="M336.16,238.23h-6.73a3.12,3.12,0,0,1-3.12-3.12h0a3.12,3.12,0,0,1,3.12-3.11h6.73a3.12,3.12,0,0,1,3.12,3.11h0A3.12,3.12,0,0,1,336.16,238.23Z" style="fill:#263238"></path><path d="M393.19,238.23H350.33a3.12,3.12,0,0,1-3.12-3.12h0a3.12,3.12,0,0,1,3.12-3.11h42.86a3.12,3.12,0,0,1,3.12,3.11h0A3.12,3.12,0,0,1,393.19,238.23Z" style="fill:#e0e0e0"></path><path d="M342.11,140.52H313.37a3.12,3.12,0,0,1-3.11-3.12h0a3.12,3.12,0,0,1,3.11-3.12h28.74a3.12,3.12,0,0,1,3.11,3.12h0A3.12,3.12,0,0,1,342.11,140.52Z" style="fill:#455a64"></path><path d="M379.13,156.84H313.37a3.12,3.12,0,0,1-3.11-3.12h0a3.12,3.12,0,0,1,3.11-3.12h65.76a3.12,3.12,0,0,1,3.11,3.12h0A3.12,3.12,0,0,1,379.13,156.84Z" style="fill:#263238"></path><path d="M449.92,173.7H313.37a3.12,3.12,0,0,1-3.11-3.12h0a3.11,3.11,0,0,1,3.11-3.11H449.92a3.11,3.11,0,0,1,3.11,3.11h0A3.12,3.12,0,0,1,449.92,173.7Z" style="fill:#e0e0e0"></path><path d="M377.76,185.58H313.37a3.12,3.12,0,0,1-3.11-3.12h0a3.12,3.12,0,0,1,3.11-3.12h64.39a3.12,3.12,0,0,1,3.11,3.12h0A3.12,3.12,0,0,1,377.76,185.58Z" style="fill:#e0e0e0"></path><path d="M364.59,206.3H300.2a3.11,3.11,0,0,1-3.11-3.11h0a3.11,3.11,0,0,1,3.11-3.12h64.39a3.11,3.11,0,0,1,3.11,3.12h0A3.11,3.11,0,0,1,364.59,206.3Z" style="fill:#455a64"></path><path d="M400.63,206.3H379.05a3.12,3.12,0,0,1-3.12-3.11h0a3.12,3.12,0,0,1,3.12-3.12h21.58a3.12,3.12,0,0,1,3.12,3.12h0A3.12,3.12,0,0,1,400.63,206.3Z" style="fill:#00A3A3"></path><path d="M455.8,206.2H415a3.12,3.12,0,0,1-3.12-3.12h0A3.12,3.12,0,0,1,415,200H455.8a3.12,3.12,0,0,1,3.12,3.11h0A3.12,3.12,0,0,1,455.8,206.2Z" style="fill:#263238"></path><path d="M511.28,206.2H470.51a3.11,3.11,0,0,1-3.11-3.12h0a3.11,3.11,0,0,1,3.11-3.11h40.77a3.12,3.12,0,0,1,3.12,3.11h0A3.12,3.12,0,0,1,511.28,206.2Z" style="fill:#e0e0e0"></path><path d="M201.4,205.93H184.2a3.12,3.12,0,0,1-3.11-3.12h0a3.12,3.12,0,0,1,3.11-3.12h17.2a3.12,3.12,0,0,1,3.12,3.12h0A3.12,3.12,0,0,1,201.4,205.93Z" style="fill:#e0e0e0"></path><path d="M196.25,256.36H184.2a3.11,3.11,0,0,1-3.11-3.12h0a3.11,3.11,0,0,1,3.11-3.11h12.05a3.12,3.12,0,0,1,3.12,3.11h0A3.12,3.12,0,0,1,196.25,256.36Z" style="fill:#e0e0e0"></path><path d="M217.65,222.74H184.2a3.12,3.12,0,0,1-3.11-3.12h0a3.12,3.12,0,0,1,3.11-3.12h33.45a3.12,3.12,0,0,1,3.12,3.12h0A3.12,3.12,0,0,1,217.65,222.74Z" style="fill:#e0e0e0"></path><path d="M211.78,239.55H184.2a3.12,3.12,0,0,1-3.11-3.12h0a3.11,3.11,0,0,1,3.11-3.11h27.58a3.11,3.11,0,0,1,3.12,3.11h0A3.12,3.12,0,0,1,211.78,239.55Z" style="fill:#e0e0e0"></path><path d="M253.26,137.4a3.17,3.17,0,1,1-3.17-3.16A3.17,3.17,0,0,1,253.26,137.4Z" style="fill:#455a64"></path><path d="M253.26,153.67a3.17,3.17,0,1,1-3.17-3.17A3.17,3.17,0,0,1,253.26,153.67Z" style="fill:#455a64"></path><path d="M253.26,170.58a3.17,3.17,0,1,1-3.17-3.16A3.17,3.17,0,0,1,253.26,170.58Z" style="fill:#455a64"></path><path d="M253.26,187.49a3.17,3.17,0,1,1-3.17-3.16A3.17,3.17,0,0,1,253.26,187.49Z" style="fill:#455a64"></path><path d="M253.26,204.41a3.17,3.17,0,1,1-3.17-3.17A3.16,3.16,0,0,1,253.26,204.41Z" style="fill:#455a64"></path><path d="M253.26,221.32a3.17,3.17,0,1,1-3.17-3.17A3.17,3.17,0,0,1,253.26,221.32Z" style="fill:#455a64"></path><path d="M253.26,238.23a3.17,3.17,0,1,1-3.17-3.17A3.17,3.17,0,0,1,253.26,238.23Z" style="fill:#455a64"></path><path d="M253.26,255.14a3.17,3.17,0,1,1-3.17-3.16A3.17,3.17,0,0,1,253.26,255.14Z" style="fill:#455a64"></path><path d="M253.26,272.06a3.17,3.17,0,1,1-3.17-3.17A3.17,3.17,0,0,1,253.26,272.06Z" style="fill:#455a64"></path><path d="M253.26,289a3.17,3.17,0,1,1-3.17-3.17A3.16,3.16,0,0,1,253.26,289Z" style="fill:#455a64"></path><path d="M253.26,305.88a3.17,3.17,0,1,1-3.17-3.17A3.17,3.17,0,0,1,253.26,305.88Z" style="fill:#455a64"></path><path d="M253.26,322.79a3.17,3.17,0,1,1-3.17-3.17A3.17,3.17,0,0,1,253.26,322.79Z" style="fill:#455a64"></path><path d="M173.24,99.94H558.41a5.34,5.34,0,0,1,5.34,5.34v19.36a0,0,0,0,1,0,0H167.68a0,0,0,0,1,0,0V105.5A5.56,5.56,0,0,1,173.24,99.94Z" style="fill:#ebebeb"></path><path d="M558.76,350a6.43,6.43,0,0,0,.82-.08,4.93,4.93,0,0,0,2.22-1,4.77,4.77,0,0,0,1.72-3.53v-5.64c0-8.55,0-21.15,0-37.37,0-32.46,0-79.42-.07-137.44q0-21.76,0-45.54V105.83a12.09,12.09,0,0,0,0-1.49,4.63,4.63,0,0,0-1.28-2.58,4.56,4.56,0,0,0-2.57-1.32,9.33,9.33,0,0,0-1.51-.07H531.29l-108.93,0-249.6,0a4.63,4.63,0,0,0-3.48,1.58,4.48,4.48,0,0,0-.94,1.71,6.54,6.54,0,0,0-.18,2V163q0,32.34,0,63.69v61.46q0,15.06,0,29.8v25.52a8.82,8.82,0,0,0,.35,3.47,4.58,4.58,0,0,0,4,2.81c.58,0,1.19,0,1.78,0h48.89l52.88,0,94.91,0,137.43.08,37.37.05,9.72,0,3.31,0-3.31,0-9.72,0-37.37.05-137.43.07-94.91,0H174.25c-.6,0-1.18,0-1.8,0a5,5,0,0,1-1.81-.44,5.06,5.06,0,0,1-2.55-2.64,5,5,0,0,1-.39-1.83V317.94q0-14.73,0-29.8V226.68q0-31.32,0-63.69V105.7a6.74,6.74,0,0,1,.21-2.12,4.72,4.72,0,0,1,1-1.89,5.1,5.1,0,0,1,3.84-1.75l249.6,0,108.93,0H558a10.3,10.3,0,0,1,1.56.07,5,5,0,0,1,4.17,4.22,10.16,10.16,0,0,1,0,1.55v13.51q0,23.74,0,45.54c0,58-.06,105-.08,137.44,0,16.22,0,28.82,0,37.37,0,2.13,0,4,0,5.64a4.78,4.78,0,0,1-4,4.58,3.46,3.46,0,0,1-.62.06Z" style="fill:#263238"></path><circle cx="182.84" cy="112.71" r="2.97" style="fill:#fff"></circle><circle cx="191.22" cy="112.71" r="2.97" style="fill:#fff"></circle><circle cx="199.59" cy="112.71" r="2.97" style="fill:#fff"></circle></g><g id="freepik--speech-bubble--inject-3"><path d="M241,162.88l-8.77,1.57a26.71,26.71,0,1,1,4.94-8.17h0Z" style="fill:#fafafa"></path><path d="M241,162.88s-.07-.14-.23-.42l-.71-1.27c-.65-1.13-1.6-2.8-2.82-4.95a.07.07,0,0,0-.09,0l0,0h0l.11.07a26.77,26.77,0,0,0,1.59-12.91,28.21,28.21,0,0,0-.84-4.06c-.21-.69-.48-1.37-.72-2.08a15.74,15.74,0,0,0-.9-2.08,26.36,26.36,0,0,0-5.74-7.88,26.87,26.87,0,0,0-20.71-7.19,27.31,27.31,0,0,0-11.73,4,23.63,23.63,0,0,0-2.63,1.86,13.73,13.73,0,0,0-1.22,1.07c-.39.37-.82.71-1.19,1.12a26.91,26.91,0,0,0-2.12,2.52c-.33.44-.66.88-1,1.34l-.85,1.43a26.81,26.81,0,0,0-1.34,24,26.72,26.72,0,0,0,25.27,16,29.49,29.49,0,0,0,4.39-.48,34.79,34.79,0,0,0,4-1.11,26.52,26.52,0,0,0,10.8-7.39l0,0,6.55-1.2,1.66-.32.55-.11-.58.1-1.69.28-6.51,1.12,0,0a26.54,26.54,0,0,1-10.78,7.28,36.43,36.43,0,0,1-3.94,1.09,28.85,28.85,0,0,1-4.35.45,26.5,26.5,0,0,1-25-15.9,26.43,26.43,0,0,1,1.33-23.74l.84-1.41c.31-.45.65-.89,1-1.33a24.91,24.91,0,0,1,2.09-2.48c.36-.41.79-.74,1.17-1.12a14.91,14.91,0,0,1,1.21-1,25.53,25.53,0,0,1,2.6-1.84,27.23,27.23,0,0,1,11.59-3.94,26.79,26.79,0,0,1,11.42,1.52,26.37,26.37,0,0,1,14.79,13.35,15.55,15.55,0,0,1,.89,2.07c.24.69.52,1.37.72,2.05a26.48,26.48,0,0,1-.65,16.86.06.06,0,0,0,0,.08.06.06,0,0,0,.07,0h-.1l2.87,4.88c.33.55.58,1,.75,1.27Z" style="fill:#263238"></path><path d="M207.09,145.07l-6.56,2.55,6.56,2.54v2.62L197.72,149v-2.73l9.37-3.79Z" style="fill:#00A3A3"></path><path d="M214.13,137.31h2.74l-6.5,19.75h-2.73Z" style="fill:#00A3A3"></path><path d="M226.59,146.26V149l-9.37,3.79v-2.62l6.55-2.54-6.55-2.55v-2.6Z" style="fill:#00A3A3"></path></g><g id="freepik--file-2--inject-3"><path d="M495.67,113.24H447.86a6,6,0,0,1-6-6V41.08a6,6,0,0,1,6-6h30.32l23.47,24.19v48A6,6,0,0,1,495.67,113.24Z" style="fill:#455a64"></path><g style="opacity:0.2"><path d="M441.87,89.53h59.77a0,0,0,0,1,0,0v17.8a5.91,5.91,0,0,1-5.91,5.91H447.79a5.91,5.91,0,0,1-5.91-5.91V89.53A0,0,0,0,1,441.87,89.53Z"></path></g><g style="opacity:0.2"><path d="M478.18,35.1V53.72a5.57,5.57,0,0,0,5.56,5.57h17.91Z" style="fill:#fff"></path></g><g style="opacity:0.2"><path d="M478.42,55.36s-.23,4.51,4.91,6a5.61,5.61,0,0,0,.59.13c2.34.42,17.73,3.16,17.73,2.8v-5H483.74S479.27,59.14,478.42,55.36Z"></path></g><path d="M466.42,70l-7.17,2.63,7.17,2.61v2.69L456.17,74v-2.8l10.25-3.9Z" style="fill:#fafafa"></path><path d="M474.13,62h3L470,82.28h-3Z" style="fill:#fafafa"></path><path d="M487.77,71.18V74l-10.26,3.9V75.19l7.18-2.61L477.51,70V67.28Z" style="fill:#fafafa"></path><path d="M464,98.35v8h-1.86v-3.29h-3.65v3.29h-1.86v-8h1.86v3.17h3.65V98.35Z" style="fill:#fafafa"></path><path d="M467.55,99.87H465V98.35h7v1.52h-2.57v6.51h-1.86Z" style="fill:#fafafa"></path><path d="M480.29,106.38v-4.82l-2.37,4h-.84l-2.35-3.87v4.71H473v-8h1.53l3,5,3-5H482l0,8Z" style="fill:#fafafa"></path><path d="M483.94,98.35h1.85v6.52h4v1.51h-5.88Z" style="fill:#fafafa"></path></g><g id="freepik--file-1--inject-3"><path d="M102.34,179.39H58.55a5.48,5.48,0,0,1-5.48-5.48V113.3a5.48,5.48,0,0,1,5.48-5.48H86.32L107.82,130v43.93A5.48,5.48,0,0,1,102.34,179.39Z" style="fill:#00A3A3"></path><g style="opacity:0.2"><path d="M54.31,157.68h52.28a1.24,1.24,0,0,1,1.24,1.24v14a6.48,6.48,0,0,1-6.48,6.48H59.55a6.48,6.48,0,0,1-6.48-6.48v-14A1.24,1.24,0,0,1,54.31,157.68Z"></path></g><g style="opacity:0.2"><path d="M86.32,107.82v17.06a5.1,5.1,0,0,0,5.1,5.09h16.4Z" style="fill:#fff"></path></g><g style="opacity:0.2"><path d="M86.55,126.37a5.66,5.66,0,0,0,4.49,5.5l.54.12c2.14.39,16.24,2.89,16.24,2.57V130H91.42S87.32,129.84,86.55,126.37Z"></path></g><path d="M68.74,167.14a4.69,4.69,0,0,1,8.13-2.9l-1.27,1.17a2.72,2.72,0,0,0-2.14-1,2.73,2.73,0,0,0,0,5.45,2.69,2.69,0,0,0,2.14-1L76.87,170a4.68,4.68,0,0,1-8.13-2.88Z" style="fill:#fafafa"></path><path d="M77.45,170.56l.67-1.49a5,5,0,0,0,2.81.89c1.17,0,1.64-.39,1.64-.91,0-1.6-4.95-.5-4.95-3.66,0-1.45,1.17-2.66,3.59-2.66a5.68,5.68,0,0,1,3,.76l-.6,1.5a4.72,4.72,0,0,0-2.36-.67c-1.17,0-1.62.43-1.62,1,0,1.57,5,.49,5,3.61,0,1.43-1.18,2.64-3.61,2.64A6.1,6.1,0,0,1,77.45,170.56Z" style="fill:#fafafa"></path><path d="M85.21,170.56l.67-1.49a4.92,4.92,0,0,0,2.81.89c1.16,0,1.64-.39,1.64-.91,0-1.6-5-.5-5-3.66,0-1.45,1.17-2.66,3.59-2.66a5.68,5.68,0,0,1,3,.76l-.61,1.5a4.69,4.69,0,0,0-2.36-.67c-1.16,0-1.61.43-1.61,1,0,1.57,5,.49,5,3.61,0,1.43-1.18,2.64-3.62,2.64A6.07,6.07,0,0,1,85.21,170.56Z" style="fill:#fafafa"></path><path d="M71.52,139.58c.9.27,1.32.84,1.32,2.19v3.13a1.29,1.29,0,0,0,1.42,1.45h.36v2.38H73.48c-2.44,0-3.7-1.25-3.7-3.5v-3.54a.8.8,0,0,0-.86-.92h-.64v-2.38h.64a.8.8,0,0,0,.86-.92v-3.55c0-2.24,1.26-3.5,3.7-3.5h1.14v2.39h-.36a1.29,1.29,0,0,0-1.42,1.45v3.13C72.84,138.74,72.42,139.3,71.52,139.58Z" style="fill:#fafafa"></path><path d="M92.62,138.39v2.38H92a.8.8,0,0,0-.86.92v3.54c0,2.25-1.25,3.5-3.7,3.5H86.28v-2.38h.35a1.29,1.29,0,0,0,1.43-1.45v-3.13c0-1.35.41-1.92,1.31-2.19-.9-.28-1.31-.84-1.31-2.19v-3.13a1.29,1.29,0,0,0-1.43-1.45h-.35v-2.39h1.13c2.45,0,3.7,1.26,3.7,3.5v3.55a.8.8,0,0,0,.86.92Z" style="fill:#fafafa"></path></g><g id="freepik--character-4--inject-3"><path d="M549.64,250.34H692.21c4.94,0,8.94-4.63,8.94-10.34V122.93c0-5.71-4-10.34-8.94-10.34H549.64c-4.94,0-8.94,4.63-8.94,10.34V240C540.7,245.71,544.7,250.34,549.64,250.34Z" style="fill:#fff"></path><path d="M540.7,112.59H701.15a0,0,0,0,1,0,0v15.53a8.59,8.59,0,0,1-8.59,8.59H548.44A7.74,7.74,0,0,1,540.7,129V112.59A0,0,0,0,1,540.7,112.59Z" transform="translate(1241.85 249.3) rotate(180)" style="fill:#e0e0e0"></path><path d="M566.16,124.94a2.59,2.59,0,1,0,2.59-2.57A2.58,2.58,0,0,0,566.16,124.94Z" style="fill:#fff"></path><path d="M558.34,124.94a2.6,2.6,0,1,0,2.59-2.57A2.58,2.58,0,0,0,558.34,124.94Z" style="fill:#fff"></path><path d="M550.52,124.94a2.6,2.6,0,1,0,2.6-2.57A2.58,2.58,0,0,0,550.52,124.94Z" style="fill:#fff"></path><path d="M549.64,250.34l-.35,0a5.84,5.84,0,0,1-1-.13,8.11,8.11,0,0,1-3.76-1.79,10.5,10.5,0,0,1-3.56-6.32,31.21,31.21,0,0,1-.17-4.92v-5.64c0-15.92,0-39,0-67.42,0-7.12,0-14.58,0-22.34q0-5.83,0-11.89v-6.11a14.72,14.72,0,0,1,.22-3,11.34,11.34,0,0,1,1-2.86,10,10,0,0,1,1.68-2.41,8.26,8.26,0,0,1,2.24-1.73,7.5,7.5,0,0,1,2.62-.87,21.2,21.2,0,0,1,2.77-.09h142c.29,0,.58,0,.86.06a7.08,7.08,0,0,1,1.68.45,7.82,7.82,0,0,1,2.89,2.09,9.29,9.29,0,0,1,1.81,3.33,9.62,9.62,0,0,1,.39,1.92,18.73,18.73,0,0,1,.06,2v47.22c0,20.49,0,40.24,0,59.07v7c0,1.16,0,2.32,0,3.47,0,.58,0,1.15,0,1.71l-.12.84a7.45,7.45,0,0,1-.17.82,10.23,10.23,0,0,1-3.24,5.44,8.29,8.29,0,0,1-2.54,1.52,8.58,8.58,0,0,1-2.82.49H669.63l-40.28,0-58.32.05-15.86,0H551l-1.4,0,1.4,0,4.13,0,15.86,0,58.32.05,40.28,0h22.45a8.22,8.22,0,0,0,5.52-2.06,10.56,10.56,0,0,0,3.34-5.6c.06-.28.14-.56.18-.85l.12-.86c0-.59.06-1.17,0-1.75V228.89c0-18.83,0-38.58,0-59.07V122.6a19.75,19.75,0,0,0-.06-2,10.44,10.44,0,0,0-.41-2,9.49,9.49,0,0,0-1.88-3.45,8.13,8.13,0,0,0-3-2.18,7.58,7.58,0,0,0-1.74-.46c-.3,0-.6,0-.9-.06h-142a24.05,24.05,0,0,0-2.81.09,8.22,8.22,0,0,0-2.69.9,8.76,8.76,0,0,0-2.3,1.79,9.64,9.64,0,0,0-1.72,2.48,11.08,11.08,0,0,0-1,2.94,14.82,14.82,0,0,0-.23,3.11v6.11q0,6.06,0,11.89c0,7.76,0,15.22,0,22.34,0,28.46,0,51.5,0,67.42v5.64a32.77,32.77,0,0,0,.19,4.94,10.56,10.56,0,0,0,3.61,6.36,8.18,8.18,0,0,0,3.8,1.77,5.43,5.43,0,0,0,1,.11Z" style="fill:#263238"></path><path d="M601.18,195.91a2.4,2.4,0,0,1,1.14-1.89c10.13-6.7,17.76-21.56,18.53-34.14,0-.71,0-1.44.07-2.17h0c.58-18,3.23-39.8,5.61-45.61,4.39-10.74,19.26-11.75,19.26-11.75,19.75-1.41,23.27,13.76,25.27,27.58,1.24,8.59,2.38,40.69,2.38,40.69h0A44.68,44.68,0,0,1,647,196.24c-3.64,1.37-6.72,1.92-8.17.74a49.68,49.68,0,0,1-20.78,12.61,25.83,25.83,0,0,1-9.85,1.31c-2.15-.2-4.42-.92-5.71-2.66a5,5,0,0,1,4.25-7.88C606,197.93,601.1,198.65,601.18,195.91Z" style="fill:#263238"></path><path d="M657.75,110.13l-13.35-5.38-1.23,1.18c-7.86,0-14.65,5.89-15.08,15.67-.3,7.07-.51,14.25.59,19.47,2.21,10.49,10.38,11.43,10.38,11.43v8.16h0a7.73,7.73,0,0,0,11.73,3.81l10.36-7.24.12-43.5A3.72,3.72,0,0,0,657.75,110.13Z" style="fill:#ffbf9d"></path><path d="M643.53,129.12a1.36,1.36,0,0,0,1.38,1.3,1.3,1.3,0,0,0,1.34-1.29,1.37,1.37,0,0,0-1.38-1.31A1.31,1.31,0,0,0,643.53,129.12Z" style="fill:#263238"></path><path d="M630.8,129.12a1.36,1.36,0,0,0,1.38,1.3,1.3,1.3,0,0,0,1.33-1.29,1.36,1.36,0,0,0-1.37-1.31A1.31,1.31,0,0,0,630.8,129.12Z" style="fill:#263238"></path><path d="M630.07,124.93c.18.17,1.17-.64,2.63-.71s2.57.61,2.71.42-.11-.39-.59-.71a3.79,3.79,0,0,0-2.19-.55,3.63,3.63,0,0,0-2.08.78C630.12,124.53,630,124.86,630.07,124.93Z" style="fill:#263238"></path><path d="M643.27,124.41c.19.14,1.1-.77,2.54-1s2.62.34,2.75.14-.16-.38-.67-.65a3.78,3.78,0,0,0-2.23-.33,3.59,3.59,0,0,0-2,1C643.28,124,643.18,124.34,643.27,124.41Z" style="fill:#263238"></path><path d="M639.21,135.71a10.35,10.35,0,0,0-2.4-.31c-.37,0-.73-.07-.8-.32a1.82,1.82,0,0,1,.19-1.12c.3-.92.62-1.88,1-2.89,1.33-4.12,2.27-7.5,2.1-7.55s-1.38,3.24-2.7,7.36c-.32,1-.63,2-.92,2.91a2.2,2.2,0,0,0-.12,1.47,1,1,0,0,0,.64.51,2.18,2.18,0,0,0,.64.06A8.89,8.89,0,0,0,639.21,135.71Z" style="fill:#263238"></path><path d="M639.06,152.5a22.77,22.77,0,0,0,13.81-3.79s-3.29,7.44-13.81,7Z" style="fill:#ff9a6c"></path><path d="M640,139.2a2.61,2.61,0,0,1,2.31-1.09,2.38,2.38,0,0,1,1.7.8,1.53,1.53,0,0,1,.2,1.74,1.77,1.77,0,0,1-1.89.58,5.94,5.94,0,0,1-1.92-1,1.91,1.91,0,0,1-.44-.41.5.5,0,0,1,0-.55" style="fill:#ff9a6c"></path><path d="M643.55,136.51c-.24,0-.16,1.58-1.46,2.77s-3,1.11-3,1.33.4.29,1.11.27a4,4,0,0,0,2.51-1,3.42,3.42,0,0,0,1.12-2.32C643.86,136.88,643.66,136.49,643.55,136.51Z" style="fill:#263238"></path><path d="M642.91,118.86c.2.37,1.61,0,3.34-.09s3.17.19,3.34-.19c.07-.19-.22-.52-.83-.82a5.69,5.69,0,0,0-2.57-.48,5.55,5.55,0,0,0-2.52.7C643.08,118.33,642.82,118.68,642.91,118.86Z" style="fill:#263238"></path><path d="M629.7,120.31c.27.32,1.26-.08,2.47-.15s2.25.11,2.46-.25c.1-.17-.08-.5-.54-.79a3.42,3.42,0,0,0-2-.44,3.46,3.46,0,0,0-1.94.76C629.7,119.81,629.58,120.15,629.7,120.31Z" style="fill:#263238"></path><path d="M661,132.3s-7.48,2.32-11.71-16.13c-1.44-6.31-7.29-11.42-7.29-11.42l2.37-.72s14.74,4.16,15,4.34,3.72,7.63,3.72,7.63Z" style="fill:#263238"></path><path d="M659.16,132.14c0-.78.78-2.69,1.55-2.85,2.06-.43,5.82-.45,6.11,4.83.41,7.21-6.91,6.13-6.93,5.93S659.29,134.86,659.16,132.14Z" style="fill:#ffbf9d"></path><path d="M661.93,137.19s.13.08.35.17a1.29,1.29,0,0,0,.94,0,3.1,3.1,0,0,0,1.28-2.87,4.22,4.22,0,0,0-.45-1.78,1.47,1.47,0,0,0-1-.91.64.64,0,0,0-.72.39c-.09.21,0,.35-.07.36s-.16-.11-.12-.41a.75.75,0,0,1,.26-.47.9.9,0,0,1,.68-.22,1.76,1.76,0,0,1,1.38,1,4.52,4.52,0,0,1,.55,2c0,1.45-.64,2.85-1.66,3.21a1.35,1.35,0,0,1-1.16-.12C662,137.36,661.91,137.2,661.93,137.19Z" style="fill:#ff9a6c"></path><path d="M655.93,128.77s-.4,0-1.08-.22a6.63,6.63,0,0,1-2.57-1.49,9.65,9.65,0,0,1-1.34-1.57,12.27,12.27,0,0,1-1.09-2.11,47.67,47.67,0,0,1-1.55-5.24c-.51-1.88-1.06-3.66-1.66-5.24a28.61,28.61,0,0,0-1.88-4.07,19.24,19.24,0,0,0-1.65-2.53c-.21-.29-.4-.5-.52-.64a1.47,1.47,0,0,0-.19-.22,1.58,1.58,0,0,0,.16.24c.11.15.29.37.49.66a23.16,23.16,0,0,1,1.59,2.55,32.55,32.55,0,0,1,1.84,4.07c.59,1.58,1.13,3.35,1.64,5.23a43.75,43.75,0,0,0,1.57,5.26,12.21,12.21,0,0,0,1.12,2.13,9,9,0,0,0,1.38,1.58,6.38,6.38,0,0,0,2.64,1.46A4.28,4.28,0,0,0,655.93,128.77Z" style="fill:#263238"></path><path d="M665.78,159.53a1.5,1.5,0,0,0,.08-.35q.07-.37.18-1c.16-.93.38-2.25.65-3.92l-.17,0c0,.26-.08.55-.12.85v0q-.07.15-.15.33l.18.06a69.65,69.65,0,0,0,2.31-11.6,70.77,70.77,0,0,0,.44-7.51,34.34,34.34,0,0,0-.71-8.23,13.23,13.23,0,0,0-1.31-3.28,17.64,17.64,0,0,0-2-2.77c-1.46-1.7-3-3.15-4.48-4.6l-7.75-7.62-5.23-5.11-1.44-1.38-.38-.35c-.09-.08-.13-.12-.14-.11l.12.13.35.38,1.39,1.42,5.17,5.19,7.69,7.67c1.44,1.45,3,2.91,4.46,4.59a14.26,14.26,0,0,1,3.23,5.92,34.5,34.5,0,0,1,.71,8.15,70.11,70.11,0,0,1-.41,7.47,73.14,73.14,0,0,1-2.21,11.59l.18.07.15-.33h0v0c0-.3.07-.59.1-.85l-.17,0c-.24,1.67-.43,3-.57,3.92-.05.44-.1.78-.13,1S665.78,159.53,665.78,159.53Z" style="fill:#455a64"></path><polygon points="674.28 235.39 681.39 250.34 614.95 250.34 619.09 236.11 674.28 235.39" style="fill:#263238"></polygon><path d="M668.42,211.75l9.67-47.24-16.6-7.21-.33-3.83-23.42,2.72-.55,3.6-13.43,4.65L618.89,178c-2.18,7.35-4.93,15.41-2,23.8l1,2.79.8,34,16.12-2L675,236.5c-1.18-3.23-2.35-3.94-3.15-5.84C669.16,224.27,668.42,211.75,668.42,211.75Z" style="fill:#00A3A3"></path><path d="M578.1,232.48l21.54-13.32,11.79-38c4.32-12,6.32-12.66,12.33-16.72l.5,17s-7.61,46.73-10.17,50.17-31.69,12-31.69,12Z" style="fill:#00A3A3"></path><path d="M586.25,242.3s-7.87,2.73-9.75,3.2-7.55.27-7.55.27-8.35,3.6-8.91,3.23-1.28-.76-.83-1.27,6.6-4.16,6.6-4.16l-4.58.94s-6.12,3.26-6.67,3.19-1.42-.72-1.19-1.47l.22-.74a1.46,1.46,0,0,1,.17-1.94l.55-.38-.3-.52a2.25,2.25,0,0,1,.46-2.42c1.07-1.19,3.28-3.78,3.28-3.78l8.1-3.16,16.73-1.11" style="fill:#ffbf9d"></path><path d="M584.29,239.58a11.4,11.4,0,0,1-.78,1.06,5.92,5.92,0,0,1-3.08,1.68,13,13,0,0,1-5.31-.24,19,19,0,0,0-6.69-.59,14.45,14.45,0,0,1-1.66.34.88.88,0,0,1-1-.68c0-.36.52-.6,1-.83l1.4-.69,4.83-2.42,3.23-1.67a7.16,7.16,0,0,0,1.16-.67,7,7,0,0,0-1.25.5l-3.3,1.52L568,239.21l-1.41.67a7.7,7.7,0,0,0-.74.39,1.05,1.05,0,0,0-.52.88,1.38,1.38,0,0,0,1.49,1.19c.65,0,1.18-.27,1.74-.34,2.27-.38,4.5.19,6.52.55a12.89,12.89,0,0,0,5.47.12,5.83,5.83,0,0,0,3.14-1.9,3.68,3.68,0,0,0,.53-.85C584.27,239.7,584.31,239.59,584.29,239.58Z" style="fill:#ff9a6c"></path><path d="M567.83,237.51c-.05-.15-3.14.93-7.12,1.3-.5.05-1,.08-1.45.11h-.12l-.06.09a17.09,17.09,0,0,1-4.3,3.72,4.12,4.12,0,0,0,1.54-.65,11.13,11.13,0,0,0,3.15-2.76l-.18.09c.48,0,1,0,1.48-.1a25.92,25.92,0,0,0,5.08-1A7,7,0,0,0,567.83,237.51Z" style="fill:#ff9a6c"></path><path d="M560.76,242c-.1-.12-1.57.94-3.6,1.87s-3.79,1.37-3.75,1.52a12,12,0,0,0,7.35-3.39Z" style="fill:#ff9a6c"></path><path d="M696.52,214.62l-9-33.47c-.58-2.13-1.56-5.49-2.56-8.25a16.42,16.42,0,0,0-4.51-6.81,9.54,9.54,0,0,0-2.34-1.58l-9,27.23,7,22-35.41,18.63,6.78,13.8,41.92-16.48a12.59,12.59,0,0,0,5.82-4.45C696.92,222.84,698.17,220,696.52,214.62Z" style="fill:#00A3A3"></path><path d="M609.57,241.71l10.08-4.65,19.69-1.51,2.75-.42,4.14,8.48s-5.74,3.79-8.44,4l-16.55-.49-8.65.88Z" style="fill:#ffbf9d"></path><path d="M618.36,217.94a4.8,4.8,0,0,1-.06-1c0-.67,0-1.64-.12-2.87-.13-2.45-.38-5.93-.78-10v0c-.48-2.47-1.21-5.17-1.64-8.08a23,23,0,0,1-.27-4.5,20.43,20.43,0,0,1,.72-4.14,37.88,37.88,0,0,1,2.4-6.66c.86-1.82,1.65-3.24,2.2-4.22a9.11,9.11,0,0,1,.91-1.49,11.46,11.46,0,0,1-.73,1.59c-.49,1-1.23,2.45-2,4.28a39.36,39.36,0,0,0-2.27,6.62,20.17,20.17,0,0,0-.68,4,23.74,23.74,0,0,0,.27,4.41c.43,2.86,1.14,5.56,1.6,8.06v0h0c.36,4.07.55,7.55.59,10,0,1.23,0,2.21,0,2.88A5.65,5.65,0,0,1,618.36,217.94Z" style="fill:#263238"></path><path d="M688.21,216.63a18.42,18.42,0,0,0-5.85-2.73,19.22,19.22,0,0,0-6.47-.11,4.88,4.88,0,0,1,1.87-.56,12.42,12.42,0,0,1,9,2.07A4.82,4.82,0,0,1,688.21,216.63Z" style="fill:#263238"></path><path d="M661.49,157.3a3.37,3.37,0,0,1-.89.41c-.58.23-1.43.53-2.49.87a53.84,53.84,0,0,1-8.5,2,45,45,0,0,1-4.8.39,29.08,29.08,0,0,1-3.93-.18c-.56,0-1.06-.14-1.5-.22a11.13,11.13,0,0,1-1.11-.23,3.08,3.08,0,0,1-.93-.29c0-.09,1.36.21,3.57.37a36.63,36.63,0,0,0,3.88.07c1.47-.06,3.07-.2,4.74-.43a70.89,70.89,0,0,0,8.47-1.8C660.15,157.64,661.46,157.23,661.49,157.3Z" style="fill:#263238"></path><path d="M647.51,246.07a1.23,1.23,0,0,1-.15-.24c-.1-.2-.22-.44-.38-.74l-1.4-2.83c-1.21-2.51-2.92-6.07-5-10.43l-.08-.17.17-.09,25.74-14.19,9.65-5.29-.12.3c-2.88-9.39-5.39-17.55-7.2-23.42-.86-2.89-1.56-5.2-2.05-6.85l-.53-1.84a4.08,4.08,0,0,1-.16-.65,3.15,3.15,0,0,1,.24.62c.16.46.36,1.06.61,1.82.53,1.63,1.28,3.94,2.2,6.8l7.38,23.37.06.19-.18.1-9.65,5.31-25.8,14.08.08-.26c2,4.39,3.7,8,4.87,10.51l1.31,2.87c.13.31.24.56.32.76A1.12,1.12,0,0,1,647.51,246.07Z" style="fill:#263238"></path><path d="M546.15,202.41l56.74.46c1.84,0,3.6.89,3.87,2.71l6.2,41.35h29.22a1.71,1.71,0,1,1,0,3.41H548.85l-6.38-43.65A3.72,3.72,0,0,1,546.15,202.41Z" style="fill:#e0e0e0"></path><path d="M546.15,202.41a2.86,2.86,0,0,0-.89.09,3.73,3.73,0,0,0-2.87,3.24,10.76,10.76,0,0,0,.21,2.34q.36,2.5.82,5.76c1.25,8.67,3.05,21.16,5.26,36.52l0,.15h.15l90.55.05h2.44a2.32,2.32,0,0,0,1.29-.24,1.93,1.93,0,0,0,0-3.38,2.29,2.29,0,0,0-1.28-.24H613l.22.19c-2.23-14.81-4.31-28.63-6.18-41a3.21,3.21,0,0,0-1-2.16,4.22,4.22,0,0,0-2.17-1,19.78,19.78,0,0,0-2.29-.08h-2.23l-8.54-.06-15.18-.1-21.61-.11h-7.78s.17,0,.51,0l1.49,0,5.78.08,21.61.24,15.18.15,8.54.08,2.23,0a18.15,18.15,0,0,1,2.23.09,3.79,3.79,0,0,1,2,.87,2.8,2.8,0,0,1,.92,1.94l6.12,41,0,.19h29.07a1.92,1.92,0,0,1,1.06.18,1.48,1.48,0,0,1,.67,1.8,1.47,1.47,0,0,1-.67.78,1.92,1.92,0,0,1-1.06.19H639.4l-90.55,0,.17.15c-2.27-15.35-4.12-27.84-5.41-36.5q-.48-3.24-.86-5.75a10.23,10.23,0,0,1-.23-2.3,3.68,3.68,0,0,1,.65-1.77,3.72,3.72,0,0,1,2.1-1.44C545.84,202.41,546.15,202.44,546.15,202.41Z" style="fill:#263238"></path><path d="M580.48,225.85a3.56,3.56,0,1,1-3.55-3.55A3.55,3.55,0,0,1,580.48,225.85Z" style="fill:#fff"></path><path d="M610.66,250c-.08,0-1.88-10.51-4-23.51s-3.82-23.55-3.74-23.57,1.88,10.52,4,23.52S610.74,249.94,610.66,250Z" style="fill:#263238"></path></g><g id="freepik--character-2--inject-3"><path d="M291.62,427.51l-1,18.63s18.59,7.29,18.74,10.75l-36.19-.68.4-29.09Z" style="fill:#263238"></path><path d="M279.44,444.36a1.47,1.47,0,0,0-1.05,1.66,1.41,1.41,0,0,0,1.64,1.06,1.55,1.55,0,0,0,1.11-1.77,1.48,1.48,0,0,0-1.83-.91" style="fill:#e0e0e0"></path><path d="M273.15,456.21l.16-2.93L307.94,455s1.6.73,1.4,1.86Z" style="fill:#455a64"></path><path d="M291.19,446c0,.18-.89.24-1.77.79S288.06,448,287.9,448s.12-1.09,1.2-1.74S291.23,445.8,291.19,446Z" style="fill:#fff"></path><path d="M295,447.6c0,.18-.74.46-1.35,1.2s-.8,1.52-1,1.51-.27-1,.51-1.91S295,447.43,295,447.6Z" style="fill:#fff"></path><path d="M297,452.19c-.16,0-.39-.86.08-1.82s1.3-1.32,1.38-1.18-.45.66-.83,1.45S297.2,452.17,297,452.19Z" style="fill:#fff"></path><path d="M291,441.69c-.07.16-.88-.1-1.88-.05s-1.78.35-1.87.2.67-.77,1.85-.81S291,441.55,291,441.69Z" style="fill:#fff"></path><path d="M247.81,425.67l-2,22.49,3.58,18.23a2.31,2.31,0,0,1-2,2.74h0a2.33,2.33,0,0,1-2-.73c-3.22-3.52-15-16.51-14.79-18.15.27-1.9.49-23.85.49-23.85Z" style="fill:#263238"></path><path d="M247.45,469.13l-16.68-20.4-.06,1a3.4,3.4,0,0,0,.68,2.3c1.32,1.77,5.08,6.59,14,16.41a2.34,2.34,0,0,0,2.06.73Z" style="fill:#455a64"></path><g style="opacity:0.6000000000000001"><path d="M235.86,441.76a1.39,1.39,0,0,1,.26,1.85,1.34,1.34,0,0,1-1.83.28,1.49,1.49,0,0,1-.27-2,1.4,1.4,0,0,1,1.94-.08" style="fill:#fff"></path></g><path d="M242.93,459a5,5,0,0,1,4.72-2c0-.05-.25-.25-.78-.35a3.54,3.54,0,0,0-2,.22,3.65,3.65,0,0,0-1.6,1.29C242.94,458.6,242.88,458.93,242.93,459Z" style="fill:#fff"></path><path d="M244.35,462.07a20.76,20.76,0,0,1,2.05-.84,20.53,20.53,0,0,1,2.22-.14,2.56,2.56,0,0,0-2.33-.34C244.94,461.05,244.23,462,244.35,462.07Z" style="fill:#fff"></path><path d="M240.2,454.9a21.83,21.83,0,0,1,3.08-1.51,22.52,22.52,0,0,1,3.39-.57,6.34,6.34,0,0,0-6.47,2.08Z" style="fill:#fff"></path><path d="M240.22,448c.05.14,1.33-.3,2.95-.25s2.88.52,2.94.38a4.43,4.43,0,0,0-2.93-.88A4.51,4.51,0,0,0,240.22,448Z" style="fill:#fff"></path><path d="M240.63,441.4a10.91,10.91,0,0,1,3.06-.35,11.24,11.24,0,0,1,2.94.94s-.19-.34-.68-.67a5.05,5.05,0,0,0-4.51-.45C240.88,441.1,240.6,441.35,240.63,441.4Z" style="fill:#fff"></path><path d="M243.74,439.79a2.33,2.33,0,0,0,.08-.85,5.83,5.83,0,0,0-.53-2.27,2.66,2.66,0,0,0-1-1.33.93.93,0,0,0-1.06.14,1.52,1.52,0,0,0-.42,1,3.27,3.27,0,0,0,2.67,3.21,3.8,3.8,0,0,0,3.84-1.74,1.33,1.33,0,0,0,.13-1.09.91.91,0,0,0-.92-.55A3.28,3.28,0,0,0,245,437a6.5,6.5,0,0,0-1.65,1.65,2.21,2.21,0,0,0-.4.76,10.62,10.62,0,0,1,2.24-2.12,3,3,0,0,1,1.35-.55.48.48,0,0,1,.51.29.92.92,0,0,1-.13.71,3.4,3.4,0,0,1-3.35,1.47,2.83,2.83,0,0,1-2.3-2.69,1,1,0,0,1,.26-.7.5.5,0,0,1,.59-.09,2.41,2.41,0,0,1,.9,1.11A9.22,9.22,0,0,1,243.74,439.79Z" style="fill:#fff"></path><path d="M307.23,268.17s5.06,13.53,4.07,26.47c-.39,5-17.29,143.57-17.29,143.57H271.19L277.61,308l-1.87.41s-12.46,55.54-13.48,64.53c-.91,8.09-11.42,66.81-11.42,66.81L230,440l6.66-77.68,7.76-74.52,2.91-21.7Z" style="fill:#263238"></path><path d="M274,294.7a4.2,4.2,0,0,0,.95.53,10.63,10.63,0,0,0,2.83,1,5.89,5.89,0,0,0,2.1,0,4.34,4.34,0,0,0,2.2-1.06,5.2,5.2,0,0,0,1.33-2.33c.27-.88.42-1.81.61-2.74.73-3.76,1.22-7.19,1.51-9.68.14-1.25.24-2.26.29-3a5,5,0,0,0,0-1.09,5.1,5.1,0,0,0-.22,1.07c-.12.79-.26,1.77-.44,2.93-.37,2.47-.92,5.89-1.64,9.64-.37,1.85-.62,3.73-1.78,4.84a4.78,4.78,0,0,1-3.94,1,12.93,12.93,0,0,1-2.8-.83A4.89,4.89,0,0,0,274,294.7Z" style="fill:#263238"></path><path d="M280.88,277s-.15-.11-.47-.13a2,2,0,0,0-1.28.41,2.26,2.26,0,0,0-1,1.76,2.26,2.26,0,0,0,3.85,1.44,2.28,2.28,0,0,0,.44-2,2.1,2.1,0,0,0-.7-1.15c-.25-.19-.43-.22-.44-.2a2.54,2.54,0,0,1,.8,1.42,2,2,0,0,1-.43,1.6,1.85,1.85,0,0,1-3.08-1.15,2,2,0,0,1,.73-1.49A2.6,2.6,0,0,1,280.88,277Z" style="fill:#263238"></path><path d="M244.71,286.43a2.88,2.88,0,0,0,.78.12,14.45,14.45,0,0,0,2.14,0A20.53,20.53,0,0,0,254.5,285a20.79,20.79,0,0,0,5.94-3.8,13.85,13.85,0,0,0,1.48-1.55,2.68,2.68,0,0,0,.46-.64c-.07-.06-.8.78-2.16,1.93a23.52,23.52,0,0,1-5.91,3.62,23.15,23.15,0,0,1-6.7,1.69C245.83,286.4,244.72,286.34,244.71,286.43Z" style="fill:#263238"></path><path d="M300.19,277.45a9.9,9.9,0,0,0,1.05,2.33,25.81,25.81,0,0,0,3.53,4.91,23.58,23.58,0,0,0,4.47,3.82,8.23,8.23,0,0,0,2.1,1.12,21.68,21.68,0,0,0-1.94-1.41,29.55,29.55,0,0,1-4.33-3.88,31,31,0,0,1-3.57-4.75C300.69,278.28,300.25,277.42,300.19,277.45Z" style="fill:#263238"></path><path d="M353,212.89l2.89-1.77s3.79-3.37,4.82-4.11a24.09,24.09,0,0,1,5.57-2.48c.56.05,6-.3,7.33-.9s2.71-1.4,2.71-1.4a2,2,0,0,1,.14,2.34c-.79,1.35-4.78,3.89-4.78,3.89l1.5,9.78s-3.72,2.93-6,3.13-4.56-.27-5.21-.06-2.29.78-2.29.78Z" style="fill:#ae7461"></path><polygon points="363.35 213.53 388.75 196.69 390.19 198.81 365.03 215.58 363.35 213.53" style="fill:#263238"></polygon><path d="M377.62,208.55a1.73,1.73,0,0,1,.91,2.57c-1,1.77-2.35,1.22-2.35,1.22a2.64,2.64,0,0,1-1.72,2.94,3.31,3.31,0,0,1-1.28,3l-1.24.64-.78-1.52s-4.65-.43-5.35-2.28l0-1a1.38,1.38,0,0,1-.75-1.36c.15-.9.09-.92,1.84-1.52s5.45-.2,5.45-.2-2-.76-1.95-1.79.83-1.68,3-1.53A21.52,21.52,0,0,1,377.62,208.55Z" style="fill:#ae7461"></path><path d="M377.62,208.55a5.12,5.12,0,0,1-.77-.17c-.5-.11-1.23-.28-2.18-.42-.47-.06-1-.12-1.57-.15a4.43,4.43,0,0,0-1.78.24,1.31,1.31,0,0,0-.69.62,1.11,1.11,0,0,0-.05.94,2,2,0,0,0,.75.76,5.67,5.67,0,0,0,1,.54l.89.35-1-.07a20.46,20.46,0,0,0-4.56,0,6.47,6.47,0,0,0-1.18.32,4.42,4.42,0,0,0-1.1.49.72.72,0,0,0-.22.47l-.06.31a1.31,1.31,0,0,0,0,.28,1.27,1.27,0,0,0,.67.9l.09.05v.09c0,.31,0,.63,0,1v0a2.12,2.12,0,0,0,.11.21,2.68,2.68,0,0,0,1.05.89,6.87,6.87,0,0,0,1.32.53,15.58,15.58,0,0,0,2.72.54h.09l0,.08c.27.52.53,1,.78,1.52l-.21-.07,1.24-.63h0a3.11,3.11,0,0,0,1.23-2.81v-.1l.09,0a3,3,0,0,0,1.38-1.2,2.3,2.3,0,0,0,.28-1.6l0-.2.19.07a1.51,1.51,0,0,0,1.2-.11,2.38,2.38,0,0,0,.84-.76,2.83,2.83,0,0,0,.45-.88,1.3,1.3,0,0,0,0-.81,1.89,1.89,0,0,0-.72-.89c-.22-.15-.35-.21-.34-.23a2.06,2.06,0,0,1,1.18,1.07,1.55,1.55,0,0,1,.07.89,3.13,3.13,0,0,1-.46,1,2.67,2.67,0,0,1-.89.84,1.74,1.74,0,0,1-1.39.13l.16-.13a2.68,2.68,0,0,1-.28,1.78,3.32,3.32,0,0,1-1.49,1.32l.08-.14a3.71,3.71,0,0,1-.23,1.67,3.23,3.23,0,0,1-1.1,1.42h0L372,219l-.14.07-.08-.14-.79-1.52.13.09a15.63,15.63,0,0,1-2.79-.55,8.44,8.44,0,0,1-1.38-.55,3,3,0,0,1-1.18-1c-.05-.09-.09-.19-.14-.27v0l0-1,.09.14a1.57,1.57,0,0,1-.85-1.16,1.53,1.53,0,0,1,0-.37l.06-.32a1,1,0,0,1,.33-.67,4.8,4.8,0,0,1,1.22-.54,5.71,5.71,0,0,1,1.23-.32,20,20,0,0,1,4.64,0l-.07.28a6,6,0,0,1-1.09-.58,2.45,2.45,0,0,1-.84-.88,1.47,1.47,0,0,1,.89-1.89,4.37,4.37,0,0,1,1.89-.22,13.61,13.61,0,0,1,1.59.19,17.28,17.28,0,0,1,2.17.5l.56.17Z" style="fill:#6f4439"></path><path d="M373.92,215.33a15.37,15.37,0,0,0-8.18-1.24,3.51,3.51,0,0,1,1.21-.3,10.58,10.58,0,0,1,3,0,10.28,10.28,0,0,1,2.88.87A3.66,3.66,0,0,1,373.92,215.33Z" style="fill:#6f4439"></path><path d="M376.11,212.47c-.06.07-.92-.5-2.14-.82s-2.24-.42-2.23-.52a4.45,4.45,0,0,1,2.33.19A3.75,3.75,0,0,1,376.11,212.47Z" style="fill:#6f4439"></path><path d="M269.36,114.93a4.35,4.35,0,0,1,4.48-2.31,6,6,0,0,1,7.34,0,5.3,5.3,0,0,1,8.09,4.17,4.44,4.44,0,0,1,4,7.39,4.26,4.26,0,0,1-1.63,8.31L270.25,119.9A4.37,4.37,0,0,1,269.36,114.93Z" style="fill:#263238"></path><path d="M292.3,133.07A18.07,18.07,0,0,0,274,116.82l-.93,0c-10.08.8-15,9.8-14,19.85l2.16,33.57,1.47,4.2,17.36,21.75,4.37-19.6.08-9.1s9.67-1.7,9.59-11.4C294.05,151.42,293.19,141.78,292.3,133.07Z" style="fill:#ae7461"></path><path d="M284.49,167.53A23.49,23.49,0,0,1,271.8,164s3.12,6.94,12.68,5.89Z" style="fill:#6f4439"></path><path d="M289.68,142.11a1.38,1.38,0,0,1-1.31,1.42,1.32,1.32,0,0,1-1.45-1.22,1.37,1.37,0,0,1,1.3-1.42A1.32,1.32,0,0,1,289.68,142.11Z" style="fill:#263238"></path><path d="M290.44,138.35c-.17.18-1.24-.58-2.73-.54s-2.56.8-2.73.62.09-.41.56-.76a3.71,3.71,0,0,1,2.18-.72,3.59,3.59,0,0,1,2.17.65C290.36,137.94,290.52,138.26,290.44,138.35Z" style="fill:#263238"></path><path d="M276.92,143a1.37,1.37,0,0,1-1.3,1.42,1.32,1.32,0,0,1-1.46-1.22,1.38,1.38,0,0,1,1.31-1.42A1.32,1.32,0,0,1,276.92,143Z" style="fill:#263238"></path><path d="M276.18,138.43c-.17.19-1.24-.57-2.73-.53s-2.56.8-2.73.62.09-.41.56-.77a3.85,3.85,0,0,1,2.18-.72,3.66,3.66,0,0,1,2.17.65C276.1,138,276.26,138.35,276.18,138.43Z" style="fill:#263238"></path><path d="M281.31,149.37a10.27,10.27,0,0,1,2.41-.48c.38,0,.74-.13.8-.39a1.94,1.94,0,0,0-.28-1.13c-.37-.91-.77-1.87-1.18-2.87-1.65-4.09-2.85-7.46-2.69-7.53s1.64,3.2,3.29,7.3c.39,1,.77,2,1.14,2.89a2.17,2.17,0,0,1,.22,1.49,1,1,0,0,1-.61.57,2.34,2.34,0,0,1-.65.1A9.39,9.39,0,0,1,281.31,149.37Z" style="fill:#263238"></path><path d="M276.11,134.18c-.17.39-1.46.07-3,.12s-2.85.41-3,0c-.07-.18.18-.54.72-.88a4.74,4.74,0,0,1,2.3-.66,4.54,4.54,0,0,1,2.3.54C275.93,133.64,276.18,134,276.11,134.18Z" style="fill:#263238"></path><path d="M290,134.27c-.22.36-1.28.12-2.51.23s-2.24.46-2.52.13c-.12-.16,0-.52.43-.88a3.43,3.43,0,0,1,2-.76,3.48,3.48,0,0,1,2.07.47C289.93,133.76,290.11,134.09,290,134.27Z" style="fill:#263238"></path><path d="M291.28,128.64s-2.68-6-5.64-7.38c-3.58-1.64-5,2.28-8.42,1.41s-6.82-2.45-10.22.23c-3.72,2.94-1.91,4.91-2.05,9.21-.59,17.47-3.67,22.46-4.75,14.27-.11-.9-2.63-1.57-3.08-5.36-.58-4.92-.89-10.91.14-14.43.86-3,2.5-5,5.47-7.35,4.69-3.65,11.23-3.86,15.68-3.5S291.53,121,291.28,128.64Z" style="fill:#263238"></path><path d="M260.82,146.1a2.64,2.64,0,0,0-2.9-2.48c-1.8.21-3.79,1.28-3.6,5,.35,6.63,6.93,4.91,6.93,4.72S261,148.87,260.82,146.1Z" style="fill:#ae7461"></path><path d="M259.68,150.94s-.11.08-.3.18a1.14,1.14,0,0,1-.86.07,2.84,2.84,0,0,1-1.46-2.5,3.79,3.79,0,0,1,.24-1.67,1.32,1.32,0,0,1,.82-.93.58.58,0,0,1,.69.28c.1.18.07.32.1.33s.14-.12.07-.39a.72.72,0,0,0-.28-.4.88.88,0,0,0-.65-.14,1.63,1.63,0,0,0-1.15,1.09,3.93,3.93,0,0,0-.3,1.87,3,3,0,0,0,1.83,2.77,1.23,1.23,0,0,0,1.05-.23C259.68,151.1,259.7,151,259.68,150.94Z" style="fill:#6f4439"></path><path d="M260.68,133.25a6.29,6.29,0,0,0,2.84,1.24,2.16,2.16,0,0,0,2.36-1.57c.07-.46-.05-1,.24-1.36s1-.31,1.58-.26a4.23,4.23,0,0,0,4.33-3.13,1.78,1.78,0,0,0,2.39.18,9.52,9.52,0,0,0,1.77-2,2.74,2.74,0,0,1,2.25-1.19,6.11,6.11,0,0,0,1.45.29c.87-.09,1.27-1.12,1.38-2s.2-1.88.93-2.36a3.42,3.42,0,0,1,2.37-.11c.8.1,1.83-.11,2-.9a1.61,1.61,0,0,0-.32-1.2,4.3,4.3,0,0,0-5.1-1.52,5.83,5.83,0,0,0-10.72-.91,5.91,5.91,0,0,0-9.39,2.35,4.28,4.28,0,0,0-4.7,6.33,4,4,0,0,0-2.17,3.28,2.34,2.34,0,0,0,2.68,2.33,2.37,2.37,0,0,0,4.15,2.28" style="fill:#263238"></path><path d="M277.67,151.82a.57.57,0,0,0-.44-.07.52.52,0,0,0-.25.31,3.33,3.33,0,0,0,.37,3.2l0,0a2.22,2.22,0,0,0,3.75-.49l.52-1.11Z" style="fill:#6f4439"></path><path d="M280.76,155.35c.05,0-.44.69-1.64.83a1.82,1.82,0,0,1-1-.16,2.14,2.14,0,0,1-.92-.67,4,4,0,0,1-.66-2.42,5.29,5.29,0,0,1,.05-.67.93.93,0,0,1,.4-.66.8.8,0,0,1,.76,0l.51.26,1.75.91a9,9,0,0,1,1.57.94,7,7,0,0,1-1.7-.66l-1.79-.83c-.33-.13-.75-.41-.89-.29s-.22.58-.23,1a3.83,3.83,0,0,0,.55,2.17,1.78,1.78,0,0,0,.75.58,1.52,1.52,0,0,0,.81.18A3.93,3.93,0,0,0,280.76,155.35Z" style="fill:#263238"></path><path d="M256.39,130.77a1.57,1.57,0,0,0,.44,1.27,2.11,2.11,0,0,0,1.34.76,2.27,2.27,0,0,0,1.88-.59l-.28,0a6.73,6.73,0,0,0,1.35,1.62,3.68,3.68,0,0,0,1.23.73,2.69,2.69,0,0,0,1.34.1,2.63,2.63,0,0,0,1.89-1.14,3.74,3.74,0,0,0,.5-1.39c.06-.34.07-.53,0-.54s-.08.18-.18.5a4.62,4.62,0,0,1-.59,1.28,2.7,2.7,0,0,1-4,.17,6.52,6.52,0,0,1-1.29-1.52l-.12-.19-.16.15a2,2,0,0,1-1.59.55,2,2,0,0,1-1.21-.61A3,3,0,0,1,256.39,130.77Z" style="fill:#455a64"></path><path d="M268.6,115.37a3.07,3.07,0,0,0,.47.16,2.37,2.37,0,0,1,1.05.86l.08.12.09-.12a8.22,8.22,0,0,1,3.15-2.66,6.46,6.46,0,0,1,2.6-.63,5.42,5.42,0,0,1,2.83.75,5.51,5.51,0,0,1,1.7,1.55,4.46,4.46,0,0,1,.77,2l0,.21.19-.06a3.65,3.65,0,0,1,4.31,1.86,5,5,0,0,1,.45,2,1.23,1.23,0,0,0,.07-.55,3.79,3.79,0,0,0-1.92-3.25,4,4,0,0,0-3-.36l.23.15a4.85,4.85,0,0,0-.81-2.16,5.83,5.83,0,0,0-4.85-2.45,6.63,6.63,0,0,0-2.73.7,8.06,8.06,0,0,0-3.18,2.84h.17a2.28,2.28,0,0,0-1.18-.84A1.11,1.11,0,0,0,268.6,115.37Z" style="fill:#455a64"></path><path d="M234.35,192.75s-11.27,48.55-10.09,63.37,3.46,36.59,3.46,36.59l15.85-.88L242,251.4l6.55-29.51Z" style="fill:#455a64"></path><path d="M262.61,274.89s-16.17-2.36-16.81-6,3.28-30.76,3.28-30.76l-3-17.79-11.71-26.26c-.64-2.2,3.3-8.5,5.33-9.56l18.88-9.91,2.44-7,7.71,75.2Z" style="fill:#455a64"></path><path d="M355.26,208.5l-23.89,11-.54-.78L313.72,187a17.16,17.16,0,0,0-10.2-8.29l-14.9-4.43-4.13-3.64-3.31,5.12-1.8,7.51-2.87-7.11-15.44-8.61-.26,4.47-5.55,16.41,4.6,42.81v43.22s12.92,2.22,21,1.67c4.65-.32,11.79-2,17-3.31h0c1.91-.49,3.56-.94,4.75-1.27l3.39-.91,3.33-4.18-.68-25.19,1.16-19.51,9,13.45a12.45,12.45,0,0,0,16.65,2.9l26.25-15.21Z" style="fill:#455a64"></path><path d="M284.44,275.58s0-.08,0-.23,0-.39,0-.68c0-.61-.06-1.49-.1-2.6-.08-2.28-.19-5.55-.32-9.57-.28-8.09-.73-19.25-1.36-31.58s-1.35-23.48-1.91-31.54c-.28-4-.51-7.28-.67-9.56-.07-1.11-.13-2-.17-2.6,0-.28,0-.51,0-.68v-.23a.89.89,0,0,1,0,.23c0,.17,0,.39.07.68.05.61.13,1.48.24,2.59.2,2.25.46,5.51.77,9.55.62,8.06,1.36,19.22,2,31.55s1.05,23.49,1.27,31.58c.11,4,.18,7.31.21,9.58,0,1.11,0,2,0,2.6v.68A.82.82,0,0,1,284.44,275.58Z" style="fill:#263238"></path><path d="M309.62,192.75a1.61,1.61,0,0,1,0,.48c0,.34,0,.8,0,1.37,0,1.24.05,3,.09,5.07.06,4.28.08,10.19,0,16.72s-.2,12.44-.34,16.71c-.08,2.11-.15,3.83-.19,5.07,0,.57-.06,1-.07,1.37a2.53,2.53,0,0,1-.05.48,2.58,2.58,0,0,1,0-.48c0-.35,0-.81,0-1.38,0-1.23,0-2.95.08-5.06.08-4.28.17-10.19.24-16.72s.08-12.43.08-16.71c0-2.11,0-3.83,0-5.07,0-.57,0-1,0-1.37A2.91,2.91,0,0,1,309.62,192.75Z" style="fill:#263238"></path><path d="M249.08,238.1c-.14,0-1.84-9.49-3.79-21.25s-3.42-21.32-3.28-21.34,1.84,9.49,3.79,21.25S249.22,238.08,249.08,238.1Z" style="fill:#263238"></path><path d="M276.16,176.63a9.87,9.87,0,0,1-1.14,1.7c-.76,1-1.86,2.51-3.16,4.2l-.12.15-.18-.08c-1.08-.5-2.26-1.07-3.48-1.7a73.4,73.4,0,0,1-6.81-4,15.84,15.84,0,0,1-2.62-2,27,27,0,0,1,2.82,1.66c1.72,1.05,4.13,2.45,6.85,3.88,1.21.63,2.38,1.21,3.45,1.72l-.29.07c1.32-1.67,2.48-3.09,3.3-4.08A10.19,10.19,0,0,1,276.16,176.63Z" style="fill:#263238"></path><path d="M289,174.47a17.55,17.55,0,0,1-3,5.83l-.41.56-.19.26-.21-.24a36.4,36.4,0,0,1-3.63-4.6,33.73,33.73,0,0,1,4,4.26h-.41l.41-.55C287.7,177.09,288.88,174.41,289,174.47Z" style="fill:#263238"></path><path d="M329.36,230.85a12.71,12.71,0,0,1,.07-6,12.92,12.92,0,0,1,2.33-5.49,48.11,48.11,0,0,0-1.82,5.6A46.91,46.91,0,0,0,329.36,230.85Z" style="fill:#263238"></path><rect x="211.42" y="303.61" width="56.39" height="40.25" rx="4.52" style="fill:#e0e0e0"></rect><path d="M263.29,343.85a5.39,5.39,0,0,0,1.81-.43,4.6,4.6,0,0,0,1.73-1.41,4.53,4.53,0,0,0,.88-2.87c0-4.72,0-11.5-.08-19.88,0-2.09,0-4.29,0-6.58,0-1.15,0-2.32,0-3.51a11.37,11.37,0,0,0-.07-1.76,4.29,4.29,0,0,0-3.53-3.52,14.57,14.57,0,0,0-1.89-.06h-2l-8.11,0-36.1,0a4.25,4.25,0,0,0-3.7,2.16,4.32,4.32,0,0,0-.56,2.13v11.56c0,6,0,11.86,0,17.41v2.07a4.34,4.34,0,0,0,.37,1.89,4.3,4.3,0,0,0,2.79,2.38,6.54,6.54,0,0,0,1.89.16h5.69l13.72,0,19.88.08,5.41.05,1.4,0,.48,0-.48,0-1.4,0L256,344l-19.88.09-13.72,0h-5.69a7.29,7.29,0,0,1-2-.17,4.71,4.71,0,0,1-3.09-2.63,4.65,4.65,0,0,1-.43-2.08v-2.07c0-5.55,0-11.37,0-17.41V308.16a4.92,4.92,0,0,1,.62-2.39,4.81,4.81,0,0,1,4.16-2.42l36.1,0h10.07a13,13,0,0,1,2,.07,4.76,4.76,0,0,1,3.2,2.11,4.61,4.61,0,0,1,.68,1.78,11.42,11.42,0,0,1,.07,1.83c0,1.19,0,2.36,0,3.51,0,2.29,0,4.49,0,6.58,0,8.38-.06,15.16-.08,19.88a4.59,4.59,0,0,1-1,3,4.5,4.5,0,0,1-1.81,1.41,4.38,4.38,0,0,1-1.37.34Z" style="fill:#263238"></path><path d="M246,303.63a1.09,1.09,0,0,0-1.38,1.09c0,1.12.92,8.71.92,8.71s2.37,8.44,1.73,9.39a1.54,1.54,0,0,1-2.41.11c-.33-.44-3-7.49-3-7.49l-.68-3.84s1.37,12.15.6,13.1a1.33,1.33,0,0,1-2.13.1c-.53-.48-1.08-5.85-1.08-5.85l-1.25-7.17.17,11.64s-.14,1.3-1.16,1.34c-1.4.06-1.69-1.45-1.69-1.45l-1.42-12.05s.47,7.82,0,8.23c-.7.55-1.35.37-1.58-.23-.47-1.22-1.15-8.26-1.15-8.26l-.65-13.4-.65-5,13-.72.08,2.24s5,3.74,6,5.21a16.56,16.56,0,0,1,1.95,4.25Z" style="fill:#ae7461"></path></g></svg>